<?xml version="1.0" encoding="UTF-8" standalone="no"?>
<!-- Created with Inkscape (http://www.inkscape.org/) -->
<svg xmlns:rdf="http://www.w3.org/1999/02/22-rdf-syntax-ns#" xmlns="http://www.w3.org/2000/svg" height="100" width="200" version="1.1" xmlns:cc="http://creativecommons.org/ns#" xmlns:dc="http://purl.org/dc/elements/1.1/">
<title>微雨网 logo</title>
<metadata>
<rdf:RDF>
<cc:Work rdf:about="">
<dc:format>image/svg+xml</dc:format>
<dc:type rdf:resource="http://purl.org/dc/dcmitype/StillImage"/>
<dc:title>微雨网 logo</dc:title>
<dc:date>2014-10-01</dc:date>
<dc:creator>
<cc:Agent>
<dc:title>xen0n</dc:title>
</cc:Agent>
</dc:creator>
<cc:license rdf:resource="http://creativecommons.org/licenses/by-nc-nd/3.0/"/>
<dc:language>zh</dc:language>
</cc:Work>
<cc:License rdf:about="http://creativecommons.org/licenses/by-nc-nd/3.0/">
<cc:permits rdf:resource="http://creativecommons.org/ns#Reproduction"/>
<cc:permits rdf:resource="http://creativecommons.org/ns#Distribution"/>
<cc:requires rdf:resource="http://creativecommons.org/ns#Notice"/>
<cc:requires rdf:resource="http://creativecommons.org/ns#Attribution"/>
<cc:prohibits rdf:resource="http://creativecommons.org/ns#CommercialUse"/>
</cc:License>
</rdf:RDF>
</metadata>
<g transform="translate(0,-900)" fill="#000">
<path d="m26.6259,912.944c0.09547,0.87922,0.147882,1.16492,0.144827,1.73792-0.0027,0.50134-0.06831,1.21264-0.06831,1.21264s-2.39709,4.12099-4.32413,7.7562c-1.48804,2.80707-3.8044,6.22508-3.8044,6.22508s-3.0057,4.42282-6.73152,9.20965c-3.74432,4.8106-7.56726,10.6429-8.96169,13.4591,0,0-0.952852,1.68671,0.156417,2.79682,0.709655,0.7102,1.52901,1.05592,2.74253,0.16547,1.28169-1.33364,1.68704-1.85383,2.88149-2.87001,1.54927-1.31803,4.78368-3.49643,6.70304-4.67618,4.26211-2.61973,9.34347-4.58618,9.34347-4.58618s-2.87171,4.49451-8.29642,14.2599c-2.6571,4.78323-3.49974,6.84263-3.49974,6.84263s-2.4625,5.59491-0.483959,6.40779c0.469273,0.1928,0.803462,0.10899,1.09131-0.096,0.346368-0.24672,0.533149-0.62407,0.736496-0.90021,0.975107-1.3242,2.15346-4.10248,3.00724-5.8586,1.2069-0.79075,2.75743-1.62864,4.12984-2.27651,0.686206-0.32394,1.30269-0.58777,1.83462-0.78705,0.531924-0.19927,1.03278-0.42297,1.24537-0.32412,0.06708,0.0312,0.06082,0.24625,0.06269,0.27743,0.01611,0.26878-0.0134,0.99168-0.03753,1.19805-0.394852,3.37714-0.515796,4.02981-0.651789,6.80786-0.204611,4.17978-0.995654,15.4453,0.370797,23.8907,0.441923,2.23573,1.43577,3.7988,3.92686,3.75548,0.80599,0.0252,3.38768-0.90674,3.3499-3.61436-0.03975-2.84866-1.06498-10.7886-1.71273-15.9435-0.311417-2.4783-1.03595-9.56204-1.53642-14.4574-0.125075-1.22346-0.373145-2.67232-2.12832-3.92921-1.82493-1.30683-7.40975,2.61541-7.40975,2.61541s3.07463-5.52019,4.99178-9.3152c0.703724-1.39303,2.73176-5.38818,3.96698-8.23621,0.211114-0.48676,0.442099-0.88831,0.206567-1.61898-0.209748-0.65068-0.735874-0.90254-1.13262-0.922-0.269021-0.0132-0.959633,0.2899-2.3081,0.86705-1.43148,0.61269-4.57757,2.03399-5.03094,2.24809-0.906739,0.42818-5.64658,2.84897-6.59027,3.47666,1.23757-1.44526,2.86668-3.54511,5.60921-7.20549,2.66702-3.55959,4.92064-6.80148,6.07829-8.52906,0.439964-0.65656,1.52206-2.50483,1.95178-3.20337,1.40124-2.27782,4.05191-7.17034,4.182-7.45243,0.127227-0.27588,1.10639-1.92216,1.37881-2.58424,0.372848-0.90615,0.492385-1.53382,0.207424-2.45995-0.28496-0.92612-1.1393-1.72007-1.1393-1.72007l-2.56086-1.85039s-0.796235-0.42744-1.18806-0.39182c-0.391821,0.0356-0.734717,0.30586-0.702915,0.59874z"/>
<path d="m44.5904,903.427c-0.525395,0-0.733123,0.41763-0.842828,0.78571-0.440748,1.47882-0.929524,3.94159-1.06653,4.84694-0.13277,0.87733-1.81758,11.4163-2.12035,15.9682-0.456078-0.89527-0.663207-1.41834-1.31858-3.49312-0.868615-2.74987-0.858701-2.82141-2.10688-3.18149,0.03127,5.25362,2.03668,9.80772,2.48094,11.6869,0.264466,1.92682,0.780519,5.51994,0.994894,6.19604,0.327434,1.03268,1.36011,1.34752,2.11572,1.37271,0.755616,0.0252,2.31722-0.27706,2.72022-2.34241,0.402995-2.06535,0.651641-4.77423,0.856365-7.83322,0.286857-4.28623,0.377557-8.45036,0.390401-9.73485,0.02519-2.51871-0.201497-8.00952-0.402995-9.47038-0.201497-1.46086-0.831751-4.04863-0.9631-4.26012-0.13135-0.2115-0.348829-0.54092-0.737273-0.54092z"/>
<path d="m37.1243,918.284c-0.949085,0.0394-1.28232,0.61597-1.49604,1.25713s-0.748021,6.37599-0.926122,8.79816c-0.1781,2.42216-0.211559,7.81339-0.140319,8.52579s0.931614,2.83595,2.85508,2.82441c1.6176-0.01,2.37306-1.05448,3.31699-2.26556,0.304206-0.3903,2.73078-4.88148,3.4788-5.84322,0.748021-0.96174,3.46405-4.3501,3.46405-4.3501s-2.98154,6.47502-4.03397,9.83559c-0.72396,2.31172-1.9591,8.6913-1.9591,8.6913s4.28053-6.63595,4.76266-7.52843c0.33931-0.62811,1.5501-2.93655,5.92336-13.2381,0.686679-1.61752,1.30904-2.58245,1.49604-3.14347,0.16802-0.50406,0.39182-1.2467-0.329485-1.9591-0.601999-0.59457-1.57529-0.45353-2.23426,0.0184-0.562278,0.40271-2.39698,1.83443-3.98207,3.29486-1.58509,1.46042-6.81176,7.87884-8.69651,10.5309-0.07405-1.54199-0.181156-6.21264-0.252396-7.12096-0.07124-0.90831,0.30169-6.93745,0.10578-7.41832s-0.747202-0.93455-1.35248-0.90939z"/>
<path d="m32.0939,952.815c-0.61008-0.84287-0.481739-1.89308,0.203947-2.91716s2.17588-3.05856,4.53023-4.80412c2.19751-1.62929,6.64856-4.36987,9.65546-5.62365,1.71276-0.71417,2.63589,0.22262,2.93866,0.56101s0.840747,1.04668,0.39182,2.35983c-0.05593,0.16361-0.357511,0.59043-0.67678,1.09532-0.382916,0.60554-1.34177,2.92015-1.90567,4.40798-0.375716,0.9913-0.944811,2.17634-1.37929,4.05763,0.469542-0.39382,1.54345-0.76367,2.43396-0.54995,0.890501,0.21372,1.39835,1.296,1.61207,1.97278,0.213721,0.67678,0.521259,2.9704,0.708265,3.75404,0.137422,0.57587,0.400726,2.36874,0.632257,3.22362,0.365104-0.98846,0.809584-2.56058,1.46933-4.53265,4.3546-13.0166,6.53819-21.6593,10.2818-34.3434-0.957357,6.80656-3.10599,18.354-3.67364,21.626-1.33492,7.69468-4.16234,19.6237-5.45672,22.4138-1.13342,2.44316-2.0222,2.62403-2.99728,2.68244-1.08921,0.0652-1.95324-0.62639-2.3676-2.1787-0.843771-3.16099-1.51123-8.23621-1.46086-9.823,0.05038-1.58679-0.270315-2.08577-0.597748-2.33764-0.327434-0.25187-1.51734,1.08529-1.51734,1.08529s-2.29495,7.50185-5.55441,15.7476c-0.367484,2.28348-1.18777,4.90526-1.81348,5.90639-0.755616,1.20899-2.18226,1.08796-2.83356,0.73043-0.781941-0.42925-1.28858-1.18307-1.12565-2.80302,0.127791-1.27059,4.20257-11.8885,5.08004-14.3746,2.41797-6.85092,3.51261-11.9394,4.53999-13.5318-1.45237,0.80679-2.1598,1.27825-3.51991,2.31093-1.36011,1.03267-3.96622,3.55616-4.76038,4.02995-1.02862,0.61366-2.08189,0.76146-2.83751-0.14528z"/>
<path d="m65.0505,919.185c-0.810889-0.008-1.4159,0.40073-1.84334,1.15765-0.393603,0.69701-1.58085,4.61363-4.48813,15.4947-0.744302,2.61676-0.250535,8.50072,2.56796,9.23908,0.926121,0.17811,1.77119,0.43175,3.3368-0.89951,0.627076-0.53321,3.64541-3.37915,5.06379-4.87526-2.59897,6.42527-4.86683,11.9718-8.48227,18.0272-1.52207,2.54928-2.70892,4.87626-4.80159,7.66353-0.280508-0.73466-0.396273-1.96355-0.399613-2.83736-0.0034-0.87778-0.455269-2.50565-0.597748-3.38724-0.21035-1.30154-1.14875-6.77672-1.14875-6.77672s-0.356201,8.20152-0.21372,9.55508c0.14248,1.35356,0.02671,4.50594,0.06233,5.6725,0.02937,0.96195,0.761225,1.76296,1.15765,1.968,0.516491,0.26716,1.88786,0.75693,3.7312-0.98845,1.19007-1.12683,4.6652-6.27665,7.87203-12.752,1.92369-3.88437,4.22302-10.3575,6.1572-16.7508,0.38448-1.27089,0.82536-2.24731,1.01134-3.39235,0.40388-2.48664-0.33839-3.11676-0.76583-3.3661s-1.06861-0.098-1.42481,0.15139c-0.3562,0.24934-0.650066,0.81036-1.00627,1.27342-0.3562,0.46306-1.15765,1.41589-1.44261,1.66523s-1.10422,1.0508-1.4248,1.2289c-0.320581,0.1781-2.3153,1.51385-2.70712,1.79881-0.391821,0.28496-1.4159,1.04189-1.46042,1.17546,0.10686-1.21999,0.837192-4.11245,1.07751-5.22724,0.320581-1.48714,0.765831-2.77837,0.943932-3.77573s0.828167-3.50858,1.0686-5.53892c0.0842-0.71099,0.204368-2.10106,0.133127-2.74222-0.07124-0.64116-0.222198-1.13093-0.444803-1.58562-0.207238-0.4233-0.640547-1.16655-1.53166-1.17546z"/>
<path d="m81.9307,979.483c-4.65963-4.06774-6.28482-4.23321-8.54278-5.97522-3.21662-2.48161-7.0806-7.03872-16.1081-13.3581-2.37186-1.66034-4.2462-3.30105-5.00182-4.56041-0.755616-1.25936-0.68132-2.72022,0.275793-3.67733s2.58181-1.06403,4.30306-0.47487c0.451131,0.15442,5.29849,3.14545,10.2512,7.2791,4.87372,4.06773,8.12025,6.67549,10.3771,9.54594,1.26722,1.61173,3.161,6.86351,4.44554,11.2209z"/>
<path d="m92.0811,930.682c-0.15433-1.09744,1.50091-1.87265,2.28574-2.23536,1.22015-0.56392,11.2089-2.71253,15.1816-2.53761,3.95635,0.17419,3.88364,2.27104,3.92291,2.66984,0.16372,1.66235-1.10804,2.81072-3.23026,3.98587-2.87151,1.59006-4.9898,2.16133-7.57149,3.0114-1.35079,0.44477-2.1582,0.95754-3.15762,1.58418,0.929969-0.69014,1.74808-1.29811,2.84183-2.27174,1.08935-0.96971,1.45825-1.4108,3.98327-3.89804-1.67495,0.42189-3.62066,0.51634-5.43414,0.66746-0.906739,0.0756-3.06205,0.26042-5.00315,0.26513-2.04186,0.005-3.668-0.1698-3.81866-1.24113z"/>
<path d="m104.801,933.163c-0.66046,0.0528-0.47393,1.3135-0.46201,2.03889,0.0389,2.3659-0.44067,6.44935-0.49816,9.71833-0.0522,2.96928-0.68125,8.63663-0.77602,10.9992-0.85685-1.60309-1.32811-2.20167-1.7864-2.72117-0.29089-0.32975-0.65466-0.64455-0.99449-1.4349,0.40318,1.09241,0.5515,2.17394,0.72536,3.05885,0.23063,1.17386,1.10299,6.97867,1.25411,8.59065s0.34632,3.46324,0.34632,4.1181c0,0.65487-0.12593,1.37271-0.0252,2.27945,0.10075,0.90673,1.00748,2.41797,2.77688,2.31722,1.61644-0.092,2.12863-1.21968,2.43088-2.12642s0.58024-5.46197,0.41435-13.573c-0.16588-8.11027-0.48214-13.6941-0.58468-15.3563-0.15417-2.49942-0.95711-5.2715-1.46085-6.22861-0.50375-0.95711-0.75754-1.72837-1.36011-1.68016z"/>
<path d="m83.2597,953.153c-1.0665,3.49569-1.23988,5.23265-1.25936,6.89897-0.0249,2.12937,0.68885,6.9962,1.66974,8.78527,1.00131,1.82632,1.95292,4.41287,4.43879,3.43283,1.17371-0.46272,1.98088-2.27269,1.17489-3.35574s-0.43089-0.30423-1.68601-2.40322c-1.2563-2.10097-2.76601-5.66532-3.06825-7.4788-0.30225-1.81348-0.36738-2.67595-0.65945-3.65393-0.26434-0.8851-0.37934-1.08838-0.61035-2.22538z"/>
<path d="m88.2435,953.957c0.5255,0.0445,0.5381,0.25034,1.05444,0.35109,0.51633,0.10075,1.42131-0.35728,1.62483-0.45274,0.6268-0.294,3.78141-2.14949,5.84737-3.20028,1.66131-0.84498,9.85407-6.07028,22.8146-6.4251,4.22947-0.11579,10.0972,0.98072,10.6065,1.781,0.24032,0.37759,0.0439,1.59858-0.16983,2.25755-0.95674,2.49764-2.83426,6.97776-6.57113,12.5932-3.63035,5.4554-6.5616,9.30941-8.64538,10.4671-1.56371,0.86874-8.78395-4.96247-10.6568-12.4099,0.29086,3.50054,4.46365,17.7406,10.2834,17.3605,2.33698-0.15264,3.50239-0.12136,7.09387-5.19207,3.179-4.48835,9.00248-12.6882,11.2827-22.667,0.29625-1.2965,0.15952-3.319-0.47134-3.90975-1.5221-1.42533-4.49663-2.22325-7.07058-2.45779-3.81135-0.34729-7.07058-0.55211-11.9861,0.16029-4.91558,0.7124-9.76064,2.46515-14.0699,4.55047-4.39908,2.12876-7.6316,4.59498-9.01188,5.72592-0.99533,0.81553-0.95161,1.02842-1.2378,1.22889-0.15599,0.10927-0.43652,0.24568-0.71694,0.23861z"/>
<path d="m93.3684,946.826c-0.5,0.75778-0.33102,1.68458-0.42439,2.59505-0.0891,0.86832,0.25218,4.90566,0.36305,7.79073,0.0911,2.36944-0.0811,3.68414,0.0257,4.1294,0.10686,0.44525,0.46306,1.72757,1.88786,1.74538,1.4248,0.0178,2.27968-1.72757,2.76055-2.45779,0.48087-0.73021,3.58084-5.79299,10.8107-11.9327,6.48178-5.50444,7.60043-6.75445,9.87121-8.51319-1.15602,4.20908-3.44664,7.3592-3.51303,10.9532,0.1603,2.56464,1.62421,2.96257,2.60917,3.82915,0.83155,0.73161,2.09268,0.96175,2.19954,2.35093,0.11014,1.43166-1.33574,5.12038-2.42216,6.49176,2.24406-1.79882,4.52375-3.88259,4.85324-6.99935,0.36764-3.47765-4.38005-3.78148-4.34934-5.4125,0.0263-1.39714,0.14684-3.64439,2.23415-9.60066,0.17986-0.51321,0.75741-2.1345,1.0532-2.67734,0.4269-0.78345,1.23762-1.90417,0.72027-2.53763-0.84406-1.03351-1.46668,0.25821-2.24965,0.93096-8.73067,7.50175-12.2213,9.99196-17.8278,15.2454-2.50924,2.3512-4.67793,4.33589-5.31603,5.28906,0.1301-0.72179,0.0597-2.07233-0.23243-4.19654-0.40844-2.96974-0.80972-3.99555-1.55774-5.63408-0.74802-1.63852-1.28532-1.70854-1.49604-1.38918z"/>
<path d="m139.748,942.59c-0.3339,0.20579,0.0121,2.06004,0.0593,2.3739,0.61564,4.09347,1.87452,10.4729,2.78316,12.9141,1.09922,2.95329,2.97093,7.55354,6.01718,5.30252,1.15367-0.8525,0.72592-2.50452,0.27229-2.97596-0.29637-0.30801-0.61012-0.8283-1.08917-1.73081-0.711-1.33949-0.92757-2.10929-2.7894-7.32995-1.64-4.59865-3.01744-6.82068-3.93151-7.84648-0.3447-0.38683-0.91164-0.96013-1.32181-0.70733z"/>
<path d="m154.986,939.561c0.73043,0.0378,0.99489,0.2015,1.15861,0.28966,0.21038,0.11328,0.65487,0.61708,1.32233,0.73042,0.97384,0.16537,2.50612,0.34003,3.32471,0.27706,0.55248-0.0425,2.09053-0.1889,8.32436-2.11572,4.92841-1.52333,9.40667-2.41275,13.3611-2.36238,3.95439,0.0504,6.98493,1.17131,8.6341,2.34546-0.24759,1.12963-0.27273,1.59728-0.26968,2.32312,0.003,0.80756-1.13465,3.4038-3.09767,10.3363-1.12041,3.95681-2.16389,6.15511-2.86148,7.52015-0.84977,1.66282-3.07198,5.83049-4.31875,6.91354-1.34751-0.66746-2.1724-1.26566-3.9355-2.80208s-1.81977-1.82607-3.9355-3.70881c1.01379,1.28454,1.12083,1.74421,1.80089,3.12321,0.84209,1.70757,1.34751,3.5325,2.65095,5.57266,0.77911,1.21948,2.07929,2.89859,4.65333,2.44946,0.94664-0.16518,2.09899-0.52665,4.03835-3.98379,0.78645-1.40192,1.79865-3.16046,3.57534-7.07807,2.14895-4.73849,5.11309-16.2152,5.11844-17.3241,0.0127-2.62615-0.32633-3.55357-0.54153-3.95439-0.8239-1.53453-4.3929-3.71562-9.98277-4.14176-8.72724-0.66532-17.7798,3.76395-22.918,4.92256-1.32233,0.27706-2.07326,0.11557-3.42285,0.29118-1.36981,0.17825-1.62089,0.37628-2.67875,0.37628z"/>
<path d="m161.99,941.901c-0.85644,0.10797-1.58174,1.17037-1.7298,1.98221-0.89609,1.38176-3.28575,6.40413-5.41401,11.4094-1.20433,2.83238-1.72156,3.56872-2.69474,6.37428-0.31421-0.51601-0.496-1.45642-0.61493-2.4148,0.13932,1.20554,0.0642,2.02008,0.0265,2.71273-0.0378,0.69265-0.22973,0.88782-0.0694,1.23328,0.44524,0.95959,1.39268,1.13656,2.43872-0.069,1.11624-1.28642,2.82909-3.89738,4.7685-8.70814,1.35534-3.36196,3.0566-6.4072,4.14718-9.14436,0.19591-0.40963,0.55644-0.81747,0.74497-1.5108,0.22216-0.81701-0.62889-1.98763-1.6029-1.86483z"/>
<path d="m151.289,952.117c-0.028-1.08763-0.19412-1.97724-0.47118-2.30467-0.27706-0.32744-0.65893-0.61619-0.98077-1.31279-0.23834-0.51585,0.33036-1.13775,0.76159-1.31406,0.38592-0.15778,0.86361-0.33481,1.49203-0.26217,0.50291,0.0581,1.54812,0.42067,3.06564,1.27074,1.57314,0.88121,3.83475,2.1724,7.77025,4.79186,0.39002,0.2596,1.01063,0.87211,1.39789,1.26251,0.23863,0.24058,0.72413,0.76506,0.99489,1.21843,0.37983,0.63599,0.57931,0.94137,1.12713,1.56161-0.90507-0.37309-1.20308-0.46489-1.72571-0.60971-1.0724-0.29717-1.47867-0.22039-1.8295-0.29945-0.99716-0.22472-2.22213-0.86989-3.16381-1.38124-2.49921-1.3571-3.20514-1.74533-6.22643-3.83238-1.08754-0.75125-1.40502-1.01709-2.05989-1.33823-0.24251,0.80594-0.17147,1.60566-0.15213,2.54955z"/>
<path d="m179.399,940.285c-1.52382,0.16372-2.05905,1.61828-2.43686,2.23537-0.37781,0.61708-3.27623,6.08002-4.97447,8.4503-1.50833,2.10521-2.66354,3.68992-3.51361,4.38257-0.51004-0.68005-1.15819-3.43378-1.22943-5.10792-0.0712-1.67415-0.0494-3.51825,0.0267-4.11412,0.14829-1.16121,0.24044-1.58509,0.57882-2.11049-1.4248,0.94393-1.71816,3.09882-1.67414,6.68767,0.0249,2.02774,0.4563,5.91665,0.89051,6.69657,0.22594,0.40583,0.73975,0.8484,1.59463,0.8484,0.85487,0,1.26354-0.32603,2.45994-1.77273,2.27271-2.7482,3.07134-3.72465,4.95946-7.04413,2.30932-4.05999,2.8747-6.67234,3.12574-7.16087,0.27177-0.52887,0.14819-0.94216,0.0605-1.26019-0.0504-0.1826,0.0188-0.46596,0.13223-0.73043z"/>
<path d="m167.781,943.981c0.65655-0.15614,2.21828,0.65447,2.70219,1.05101,0.90674,0.74303,2.96203,2.52162,3.7932,3.45355,0.83118,0.93193,3.61038,4.46326,4.52231,5.75447,0.86978,1.23152,1.166,2.16737,1.28808,2.31661,0.47282,0.57799,0.49817,1.4676,0.78619,2.20425-0.30138-0.62834-0.8629-0.75341-1.54847-1.00262-0.8396-0.30521-3.18958-2.86272-3.5043-3.09487-0.77934-0.57485-1.82326-1.77561-4.04419-4.07724-1.15423-1.19617-5.15617-6.32901-3.99501-6.60516z"/>
<path d="m86.7787,987.326c1.08196,0.17365,1.85242,0.16692,3.341,0.0454,1.73669-0.14173,4.40457-1.12591,13.9127-3.05273,3.87301-0.78487,10.9856-2.1259,19.6011-3.2835,8.61547-1.15759,18.7402-2.07824,22.9905-2.61031,8.55105-1.07045,17.724-2.1109,20.0686-2.12484-3.30361-0.22173-18.1555,0.0135-25.4951,0.40721-9.3779,0.503-27.9462,2.72335-37.077,5.2556-3.8904,1.07892-6.09525,1.58763-9.11772,2.45658-3.05934,0.87956-4.81317,1.6517-5.40442,1.90227-0.63273,0.26815-1.28302,0.7191-1.72883,0.89742-0.28941,0.11577-0.56992,0.12912-1.09087,0.10686z"/>
<path d="m197.5,975.328c0,2.00311-1.62385,3.62695-3.62696,3.62695-2.00312,0-3.62696-1.62384-3.62696-3.62695s1.62384-3.62696,3.62696-3.62696c2.00311,0,3.62696,1.62385,3.62696,3.62696z"/>
</g>
</svg>
