<?xml version="1.0" encoding="UTF-8" standalone="no"?>
<!-- Created with Inkscape (http://www.inkscape.org/) -->

<svg
   xmlns:dc="http://purl.org/dc/elements/1.1/"
   xmlns:cc="http://creativecommons.org/ns#"
   xmlns:rdf="http://www.w3.org/1999/02/22-rdf-syntax-ns#"
   xmlns:svg="http://www.w3.org/2000/svg"
   xmlns="http://www.w3.org/2000/svg"
   xmlns:xlink="http://www.w3.org/1999/xlink"
   xmlns:sodipodi="http://sodipodi.sourceforge.net/DTD/sodipodi-0.dtd"
   xmlns:inkscape="http://www.inkscape.org/namespaces/inkscape"
   width="2000"
   height="1000"
   id="svg2"
   version="1.1"
   inkscape:version="0.48.4 r9939"
   sodipodi:docname="logo.svg">
  <title
     id="title4010">微雨网 logo</title>
  <defs
     id="defs4" />
  <sodipodi:namedview
     id="base"
     pagecolor="#ffffff"
     bordercolor="#666666"
     borderopacity="1.0"
     inkscape:pageopacity="0.0"
     inkscape:pageshadow="2"
     inkscape:zoom="0.5"
     inkscape:cx="1172.7546"
     inkscape:cy="330.07312"
     inkscape:document-units="px"
     inkscape:current-layer="layer2"
     showgrid="false"
     showguides="true"
     inkscape:guide-bbox="true"
     inkscape:window-width="1920"
     inkscape:window-height="1168"
     inkscape:window-x="0"
     inkscape:window-y="0"
     inkscape:window-maximized="1" />
  <metadata
     id="metadata7">
    <rdf:RDF>
      <cc:Work
         rdf:about="">
        <dc:format>image/svg+xml</dc:format>
        <dc:type
           rdf:resource="http://purl.org/dc/dcmitype/StillImage" />
        <dc:title>微雨网 logo</dc:title>
        <dc:date>2014-10-01</dc:date>
        <dc:creator>
          <cc:Agent>
            <dc:title>xen0n</dc:title>
          </cc:Agent>
        </dc:creator>
        <cc:license
           rdf:resource="http://creativecommons.org/licenses/by-nc-nd/3.0/" />
        <dc:language>zh</dc:language>
      </cc:Work>
      <cc:License
         rdf:about="http://creativecommons.org/licenses/by-nc-nd/3.0/">
        <cc:permits
           rdf:resource="http://creativecommons.org/ns#Reproduction" />
        <cc:permits
           rdf:resource="http://creativecommons.org/ns#Distribution" />
        <cc:requires
           rdf:resource="http://creativecommons.org/ns#Notice" />
        <cc:requires
           rdf:resource="http://creativecommons.org/ns#Attribution" />
        <cc:prohibits
           rdf:resource="http://creativecommons.org/ns#CommercialUse" />
      </cc:License>
    </rdf:RDF>
  </metadata>
  <g
     inkscape:groupmode="layer"
     id="layer4"
     inkscape:label="dash"
     style="display:inline"
     sodipodi:insensitive="true">
    <path
       style="fill:#000000;fill-opacity:1;stroke:none"
       d="m 867.62002,870.59946 c 10.73919,1.72357 18.38648,1.65682 33.16161,0.45102 C 918.01955,869.64368 944.5,859.875 1038.875,840.75 c 38.4423,-7.7903 109.0394,-21.10096 194.5539,-32.59088 85.5144,-11.48993 186.0092,-20.62799 228.1961,-25.90912 84.875,-10.625 175.9231,-20.95216 199.195,-21.09048 -32.7906,-2.20083 -180.2054,0.13432 -253.0562,4.04182 -93.082,4.99264 -277.3847,27.03108 -368.0142,52.16536 -38.6149,10.70906 -60.4996,15.7583 -90.4996,24.3833 -30.36603,8.73023 -47.77403,16.3942 -53.64254,18.88128 -6.28033,2.66161 -12.73492,7.13755 -17.15987,8.90752 -2.87261,1.14904 -5.65685,1.28163 -10.82757,1.06066 z"
       id="path3877"
       inkscape:connector-curvature="0"
       sodipodi:nodetypes="csssscsssssc" />
    <path
       sodipodi:type="arc"
       style="fill:#000000;fill-opacity:1;stroke:none"
       id="path3879"
       sodipodi:cx="1931.4622"
       sodipodi:cy="750.56805"
       sodipodi:rx="33.23402"
       sodipodi:ry="34.471455"
       d="m 1964.6962,750.56805 a 33.23402,34.471455 0 1 1 -66.4681,0 33.23402,34.471455 0 1 1 66.4681,0 z"
       transform="matrix(1.0832274,0,0,1.0443424,-161.60849,-32.335667)" />
  </g>
  <g
     inkscape:groupmode="layer"
     id="layer5"
     inkscape:label="old"
     sodipodi:insensitive="true"
     style="display:none">
    <g
       transform="translate(-7.2092715e-5,-1.0400983e-4)"
       style="display:inline"
       id="g3933">
      <path
         sodipodi:nodetypes="sssssssss"
         inkscape:connector-curvature="0"
         id="path3913-5"
         d="m 1393.375,426.5625 c -3.3142,2.04263 0.1197,20.44724 0.5882,23.56251 6.1106,40.63054 18.6059,103.95036 27.6247,128.18139 10.9105,29.31339 29.4885,74.97398 59.7246,52.6311 11.451,-8.46167 7.2053,-24.85907 2.7027,-29.53845 -2.9417,-3.05719 -6.0558,-8.22141 -10.8107,-17.17938 -7.0572,-13.2954 -9.2068,-20.93622 -27.6867,-72.75476 -16.2782,-45.64473 -29.9502,-67.69994 -39.023,-77.88172 -3.4213,-3.8395 -9.0486,-9.52988 -13.1198,-7.02069 z"
         style="fill:#000000;fill-opacity:1;stroke:none" />
      <path
         sodipodi:nodetypes="cssssscssscscsssssssscsc"
         inkscape:connector-curvature="0"
         id="path3915-5"
         d="m 1544.625,396.5 c 7.25,0.375 9.875,2 11.5,2.875 2.0882,1.12443 6.5,6.125 13.125,7.25 9.666,1.64139 24.875,3.375 33,2.75 5.4838,-0.42183 20.75,-1.875 82.625,-21 48.9178,-15.12003 93.3676,-23.94822 132.6176,-23.44822 39.25,0.5 69.3302,11.62607 85.6993,23.28033 -2.4575,11.21231 -2.707,15.854 -2.6767,23.0585 0.034,8.01554 -11.2622,33.78502 -30.7465,102.59523 -11.1209,39.27404 -21.4781,61.09364 -28.4022,74.64263 -8.4345,16.50458 -30.4915,57.87153 -42.8665,68.62153 -13.375,-6.625 -21.5625,-12.5625 -39.0625,-27.8125 -17.5,-15.25 -18.0625,-18.125 -39.0625,-36.8125 10.0625,12.75 11.125,17.3125 17.875,31 8.3583,16.94884 13.375,35.0625 26.3125,55.3125 7.7332,12.10414 20.6384,28.77044 46.1875,24.3125 9.396,-1.63947 20.8339,-5.22738 40.0834,-39.54182 7.806,-13.91503 17.8528,-31.36967 35.4876,-70.25471 21.3298,-47.03265 50.7509,-160.94721 50.804,-171.95347 0.1258,-26.06635 -3.239,-35.27157 -5.375,-39.25 -8.1778,-15.23129 -43.6025,-36.8801 -99.0858,-41.10983 -86.6238,-6.60372 -176.4767,37.35983 -227.4767,48.85983 -13.125,2.75 -20.5785,1.14708 -33.9741,2.89017 -13.5963,1.76919 -16.0884,3.73483 -26.5884,3.73483 z"
         style="fill:#000000;fill-opacity:1;stroke:none" />
      <path
         sodipodi:nodetypes="scsccsssscss"
         inkscape:connector-curvature="0"
         id="path3917-8"
         d="m 1614.148,419.7305 c -8.5007,1.07171 -15.6998,11.61678 -17.1694,19.67483 -8.8943,13.71492 -32.6133,63.56536 -53.7377,113.24608 -11.9538,28.11324 -17.0877,35.422 -26.7472,63.26909 -3.1187,-5.12177 -4.9231,-14.45604 -6.1036,-23.9686 1.3829,11.96581 0.6376,20.0507 0.2626,26.9257 -0.375,6.875 -2.2803,8.81219 -0.6893,12.24112 4.4193,9.52467 13.8233,11.28113 24.206,-0.68458 C 1545.2488,617.6656 1562.25,591.75 1581.5,544 c 13.4527,-33.36974 30.3388,-63.59582 41.1636,-90.76404 1.9445,-4.06586 5.523,-8.11396 7.3943,-14.99569 2.2051,-8.1094 -6.2421,-19.72863 -15.9099,-18.50977 z"
         style="fill:#000000;fill-opacity:1;stroke:none" />
      <path
         sodipodi:nodetypes="csssssssscsssscc"
         inkscape:connector-curvature="0"
         id="path3919-2"
         d="M 1507.9268,521.12545 C 1507.649,510.32995 1506,501.5 1503.25,498.25 c -2.75,-3.25 -6.5403,-6.11612 -9.7348,-13.03033 -2.3657,-5.12018 3.279,-11.29289 7.5593,-13.04289 3.8305,-1.56608 8.5719,-3.32323 14.8094,-2.60226 4.9917,0.57698 15.3661,4.17548 30.4286,12.61298 15.6144,8.74664 38.0625,21.5625 77.125,47.5625 3.8712,2.57665 10.0312,8.65625 13.875,12.53125 2.3686,2.3879 7.1875,7.59375 9.875,12.09375 3.77,6.31263 5.75,9.34375 11.1875,15.5 -8.9834,-3.70311 -11.9414,-4.61428 -17.1289,-6.05178 -10.6443,-2.94961 -14.6768,-2.18754 -18.159,-2.97227 -9.8975,-2.23041 -22.0561,-8.63424 -31.403,-13.70971 -24.8063,-13.47011 -31.8132,-17.32363 -61.8015,-38.03899 -10.7946,-7.45668 -13.9458,-10.09532 -20.4458,-13.28282 -2.4071,7.99946 -1.702,15.9373 -1.51,25.30602 z"
         style="fill:#000000;fill-opacity:1;stroke:none" />
      <path
         sodipodi:nodetypes="csscsscsssssssc"
         inkscape:connector-curvature="0"
         id="path3921-4"
         d="m 1786.9375,403.6875 c -15.125,1.625 -20.4375,16.0625 -24.1875,22.1875 -3.75,6.125 -32.5188,60.34835 -49.375,83.875 -14.9712,20.8957 -26.4375,36.625 -34.875,43.5 -5.0625,-6.75 -11.4958,-34.08261 -12.2029,-50.69962 -0.7071,-16.61701 -0.4901,-34.92101 0.2652,-40.83541 1.4719,-11.52579 2.3865,-15.73314 5.7452,-20.94805 -14.1421,9.36916 -17.0539,30.75788 -16.617,66.37965 0.2469,20.1267 4.5291,58.72682 8.8389,66.46804 2.2426,4.02818 7.3425,8.42094 15.8278,8.42094 8.4852,0 12.5415,-3.23601 24.4166,-17.59556 22.5582,-27.27768 30.4851,-36.96963 49.226,-69.91779 22.9216,-40.29815 28.5334,-66.22749 31.0251,-71.07647 2.6975,-5.24945 1.4709,-9.35159 0.6001,-12.50823 -0.5,-1.8125 0.187,-4.625 1.3125,-7.25 z"
         style="fill:#000000;fill-opacity:1;stroke:none" />
      <path
         sodipodi:nodetypes="ssssscssss"
         inkscape:connector-curvature="0"
         id="path3923-5"
         d="m 1671.625,440.375 c 6.5167,-1.5498 14.9468,3.31404 19.75,7.25 9,7.375 25.875,31.875 34.125,41.125 8.25,9.25 27.0217,23.83036 36.0733,36.64645 8.6331,12.22368 8.462,20.8173 9.0883,22.62565 0.8181,2.36199 2.873,7.77037 7.2318,11.9571 -6.9914,-4.73667 -11.3112,-6.54544 -14.7409,-7.26906 -8.6761,-1.83055 -14.5678,-2.92111 -18.097,-4.53727 C 1729.32,540.96704 1715.5625,529.3125 1695,505.125 c -13.7065,-16.12281 -34.9003,-62.00905 -23.375,-64.75 z"
         style="fill:#000000;fill-opacity:1;stroke:none" />
    </g>
  </g>
  <g
     inkscape:groupmode="layer"
     id="layer2"
     inkscape:label="text"
     style="display:inline"
     sodipodi:insensitive="true">
    <g
       id="g3892">
      <path
         sodipodi:nodetypes="sscscscscsscscssscssssssccsssscsssssscssssssccss"
         inkscape:connector-curvature="0"
         id="path3051"
         d="m 270.5625,132.3125 c 0.94761,8.72682 1.46783,11.56258 1.4375,17.25 -0.0265,4.97619 -0.67804,12.0363 -0.67804,12.0363 0,0 -23.79278,40.90362 -42.91992,76.98557 -14.76976,27.86205 -37.76123,61.78814 -37.76123,61.78814 0,0 -29.83362,43.8995 -66.81491,91.41206 C 86.660963,439.53308 48.715661,497.42275 34.875,525.375 c 0,0 -9.457711,16.74172 1.552539,27.76041 7.043812,7.04921 15.176461,10.48071 27.22151,1.64232 12.721675,-13.23726 16.744994,-18.40051 28.600791,-28.48674 15.37756,-13.08234 47.48125,-34.70449 66.5322,-46.41426 42.30438,-26.00263 92.74033,-45.52096 92.74033,-45.52096 0,0 -28.50365,44.611 -82.34758,141.53903 -26.37357,47.47681 -34.73729,67.9177 -34.73729,67.9177 0,0 -24.44203,55.53334 -4.80362,63.60171 4.65785,1.91366 7.97491,1.08178 10.83196,-0.95336 3.43793,-2.44892 5.29186,-6.19431 7.31022,-8.93524 9.6786,-13.14352 21.37456,-40.71991 29.84894,-58.15061 11.97926,-7.84869 27.36938,-16.16536 40.9915,-22.5959 6.81106,-3.21527 12.93012,-5.83401 18.20982,-7.81194 5.2797,-1.97794 10.25102,-4.19831 12.36118,-3.21716 0.6658,0.30957 0.60371,2.44422 0.62226,2.75365 0.15993,2.66785 -0.13299,9.84314 -0.37248,11.89151 -3.91917,33.52039 -5.11963,39.99858 -6.46945,67.57267 -2.0309,41.4871 -9.88254,153.30504 3.68041,237.13141 4.38639,22.19119 14.25101,37.70577 38.97676,37.27576 8,0.25 33.625,-9 33.25,-35.875 -0.39453,-28.27489 -10.57063,-107.08411 -17,-158.25 -3.09102,-24.59882 -10.28255,-94.90973 -15.25,-143.5 -1.24146,-12.14362 -3.70372,-26.52458 -21.125,-39 -18.11369,-12.97126 -73.5468,25.95971 -73.5468,25.95971 0,0 30.51783,-54.79163 49.5468,-92.45971 6.98494,-13.82678 27.11463,-53.48133 39.375,-81.75 2.09545,-4.83147 4.38814,-8.81709 2.05032,-16.06948 -2.08189,-6.45841 -7.30405,-8.9583 -11.24204,-9.15149 -2.67021,-0.13099 -9.52501,2.87747 -22.90942,8.60609 -14.20841,6.08129 -45.43547,20.18875 -49.93547,22.31375 -9,4.25 -56.04616,28.27803 -65.41291,34.50824 12.28374,-14.34518 28.45372,-35.18764 55.67522,-71.51935 26.47197,-35.33134 48.84073,-67.50938 60.33121,-84.65672 4.36694,-6.51682 15.10751,-24.86222 19.37274,-31.79569 13.90821,-22.60889 40.21796,-71.17044 41.5092,-73.97041 1.26281,-2.7383 10.98167,-19.07876 13.68566,-25.65036 3.70077,-8.99412 4.88725,-15.22425 2.05882,-24.41664 C 323.22991,156.50556 314.75,148.625 314.75,148.625 l -25.41833,-18.36634 c 0,0 -7.90317,-4.24264 -11.79226,-3.88909 -3.88909,0.35355 -7.29257,3.0359 -6.97691,5.94293 z"
         style="fill:#000000;fill-opacity:1;stroke:none" />
      <g
         id="g3854">
        <path
           style="fill:#000000;fill-opacity:1;stroke:none"
           d="m 448.87264,37.84642 c -5.21491,0 -7.27675,4.145202 -8.36564,7.798701 -4.37473,14.678318 -9.22616,39.122927 -10.58608,48.109149 -1.31783,8.70814 -18.04072,113.31501 -21.04592,158.49573 -4.52688,-8.88609 -6.58278,-14.07793 -13.08777,-34.67153 -8.6216,-27.2944 -8.5232,-28.00442 -20.91223,-31.57847 0.31038,52.14578 20.21539,97.34831 24.625,116 2.625,19.125 7.74718,54.7892 9.875,61.5 3.25,10.25 13.5,13.375 21,13.625 7.5,0.25 23,-2.75 27,-23.25 4,-20.5 6.46798,-47.38742 8.5,-77.75 2.84725,-42.54377 3.74751,-83.87564 3.875,-96.625 0.25,-25 -2,-79.5 -4,-94 -2,-14.5 -8.2557,-40.185417 -9.55943,-42.28464 -1.30373,-2.099223 -3.46236,-5.36894 -7.31793,-5.36894 z"
           id="path3840"
           inkscape:connector-curvature="0"
           sodipodi:nodetypes="ssscsccssssssss" />
        <path
           style="fill:#000000;fill-opacity:1;stroke:none"
           d="m 374.76659,185.30943 c -9.42032,0.39153 -12.72792,6.11397 -14.84924,12.47793 -2.12132,6.36396 -7.42462,63.28605 -9.19239,87.32768 -1.76776,24.04163 -2.09987,77.5532 -1.39276,84.62426 0.7071,7.07107 9.2469,28.1488 28.33865,28.03428 16.05573,-0.0963 23.55419,-10.46644 32.92336,-22.48726 3.01945,-3.874 27.10489,-48.45198 34.52951,-57.99792 7.42462,-9.54594 34.38306,-43.17771 34.38306,-43.17771 0,0 -29.59385,64.26896 -40.03992,97.62493 -7.18579,22.94537 -19.44543,86.26703 -19.44543,86.26703 0,0 42.48721,-65.86629 47.2726,-74.72476 3.36788,-6.23444 15.38577,-29.14728 58.79342,-131.39686 6.81576,-16.05497 12.99308,-25.63263 14.84924,-31.20109 1.66771,-5.00312 3.88908,-12.37437 -3.27037,-19.44544 -5.97525,-5.90149 -15.63586,-4.50153 -22.17659,0.18306 -5.58099,3.9972 -23.79163,18.208 -39.52476,32.70369 -15.73312,14.49569 -67.61139,78.20285 -86.3188,104.5268 -0.73501,-15.30532 -1.7981,-61.66473 -2.50521,-70.68035 -0.7071,-9.01561 2.99448,-68.85896 1.04994,-73.63193 -1.94454,-4.77297 -7.41649,-9.27604 -13.42431,-9.02634 z"
           id="path3842"
           inkscape:connector-curvature="0"
           sodipodi:nodetypes="ssssssscscsssssscsss" />
        <path
           style="fill:#000000;fill-opacity:1;stroke:none"
           d="m 324.83579,528.05806 c -6.05546,-8.36612 -4.78158,-18.79017 2.02432,-28.95483 6.8059,-10.16466 21.59709,-30.35825 44.96562,-47.68421 21.81181,-16.17177 65.99148,-43.37386 95.83701,-55.81855 17.00028,-7.0886 26.16296,2.20972 29.16816,5.56847 3.0052,3.35876 8.34499,10.38901 3.88908,23.42291 -0.55517,1.62392 -3.54854,5.8604 -6.7175,10.87178 -3.8007,6.0104 -13.31794,28.9845 -18.91511,43.75223 -3.72923,9.83932 -9.37789,21.60165 -13.69039,40.27475 4.66053,-3.90901 15.31983,-7.57995 24.15867,-5.45863 8.83883,2.12132 13.87957,12.86365 16.00089,19.58116 2.12132,6.71751 5.17385,29.48326 7.03001,37.26143 1.36401,5.71583 3.97748,23.5113 6.27558,31.99658 3.62391,-9.8111 8.03567,-25.41545 14.58407,-44.98967 C 572.66853,428.68306 594.34221,342.89865 631.5,217 c -9.50242,67.55977 -30.82908,182.17575 -36.46338,214.65273 -13.25,76.375 -41.31404,194.77859 -54.16162,222.47227 -11.25,24.25 -20.07166,26.04533 -29.75,26.625 -10.81117,0.64752 -19.38719,-6.2173 -23.5,-21.625 -8.375,-31.375 -15,-81.75 -14.5,-97.5 0.5,-15.75 -2.68306,-20.70267 -5.93306,-23.20267 -3.25,-2.5 -15.06066,10.77221 -15.06066,10.77221 0,0 -22.77898,74.46102 -55.13128,156.30546 -3.64752,22.66516 -11.78945,48.68812 -18,58.625 -7.5,12 -21.66044,10.79876 -28.125,7.25 -7.7613,-4.26061 -12.79007,-11.74278 -11.17287,-27.82192 1.26842,-12.6114 41.71333,-118.00104 50.42287,-142.67808 24,-68 34.86504,-118.50633 45.0625,-134.3125 C 420.77175,474.57042 413.75,479.25 400.25,489.5 c -13.5,10.25 -39.36742,35.29735 -47.25,40 -10.20971,6.09099 -20.66421,7.55806 -28.16421,-1.44194 z"
           id="path3844"
           inkscape:connector-curvature="0"
           sodipodi:nodetypes="cssssssscssscscssssssccsssscssc" />
      </g>
      <g
         id="g3850">
        <path
           style="fill:#000000;fill-opacity:1;stroke:none"
           d="m 651.95245,194.25182 c -8.04863,-0.0804 -14.05374,3.97748 -18.29638,11.49048 -3.90678,6.91825 -15.69097,45.79344 -44.54774,153.79574 -7.3877,25.97309 -2.48673,84.37541 25.48878,91.7042 9.19239,1.76777 17.58029,4.28537 33.12006,-8.9283 6.22415,-5.29248 36.18314,-33.54036 50.26156,-48.39024 -25.79657,63.77513 -48.30661,118.82795 -84.19228,178.93202 -15.1076,25.30337 -26.88782,48.40021 -47.65908,76.06576 -2.78423,-7.29203 -3.93328,-19.48962 -3.96643,-28.16273 -0.0333,-8.71254 -4.51885,-24.87027 -5.93306,-33.62072 -2.08786,-12.91862 -11.4021,-67.26353 -11.4021,-67.26353 0,0 -3.53554,81.40567 -2.12132,94.8407 1.41421,13.43503 0.26516,44.7245 0.61871,56.30337 0.29154,9.54804 7.55568,17.49858 11.49048,19.53383 5.12653,2.65165 18.73833,7.513 37.03473,-9.81111 11.81229,-11.18458 46.30533,-62.30005 78.1353,-126.57211 19.09389,-38.55497 41.91631,-102.80513 61.11439,-166.26308 3.81628,-12.61443 8.19227,-22.30605 10.03822,-33.67137 4.00877,-24.68157 -3.35875,-30.93592 -7.60139,-33.41079 -4.24264,-2.47487 -10.6066,-0.97227 -14.14214,1.5026 -3.53553,2.47488 -6.45234,8.04334 -9.98788,12.63953 -3.53553,4.5962 -11.49049,14.05375 -14.31892,16.52863 -2.82842,2.47487 -10.96015,10.42981 -14.14213,12.19758 -3.18198,1.76777 -22.98097,15.02603 -26.87006,17.85446 -3.88909,2.82842 -14.05374,10.34142 -14.49568,11.66725 1.06066,-12.1092 8.3097,-40.8189 10.69498,-51.88395 3.18199,-14.76086 7.6014,-27.57717 9.36917,-37.47666 1.76777,-9.8995 8.22012,-34.82502 10.6066,-54.97756 0.8357,-7.05703 2.02849,-20.85444 1.32138,-27.21841 -0.7071,-6.36396 -2.20547,-11.22522 -4.41497,-15.73833 -2.05698,-4.20158 -6.35787,-11.57887 -15.2028,-11.66726 z"
           id="path3846"
           inkscape:connector-curvature="0"
           sodipodi:nodetypes="ssccscscsscssssssssssssscssssss" />
        <path
           style="fill:#000000;fill-opacity:1;stroke:none"
           d="m 819.5,792.75 c -46.25,-40.375 -62.38115,-42.01749 -84.79289,-59.30806 -31.92723,-24.63173 -70.27979,-69.86407 -159.88389,-132.58839 -23.54229,-16.47998 -42.14644,-32.76516 -49.64644,-45.26516 -7.5,-12.5 -6.76257,-27 2.73743,-36.5 9.5,-9.5 25.62623,-10.56119 42.71079,-4.71339 4.47778,1.53268 52.59109,31.22073 101.75,72.25 48.375,40.375 80.59895,66.2588 103,94.75 12.57795,15.9975 31.375,68.125 44.125,111.375 z"
           id="path3848"
           inkscape:connector-curvature="0"
           sodipodi:nodetypes="csssssssc" />
      </g>
    </g>
    <g
       id="g3906">
      <path
         style="fill:#000000;fill-opacity:1;stroke:none"
         d="m 920.25,308.375 c -1.5318,-10.89282 14.89758,-18.58728 22.6875,-22.1875 12.11087,-5.59721 111.2559,-26.92365 150.6875,-25.1875 39.2694,1.72901 38.5477,22.54167 38.9375,26.5 1.625,16.5 -10.998,27.89833 -32.0625,39.5625 -28.5017,15.78241 -49.5272,21.45267 -75.1522,29.89017 -13.4075,4.41466 -21.4216,9.50421 -31.34152,15.72411 9.23052,-6.8501 17.35082,-12.88469 28.20712,-22.54864 10.8125,-9.625 14.4741,-14.00314 39.5366,-38.69064 -16.625,4.1875 -35.9375,5.125 -53.9375,6.625 -9,0.75 -30.39293,2.58487 -49.65972,2.63155 -20.26679,0.0491 -36.40741,-1.68532 -37.90278,-12.31905 z"
         id="path3869"
         inkscape:connector-curvature="0"
         sodipodi:nodetypes="sssssscscsss" />
      <path
         style="fill:#000000;fill-opacity:1;stroke:none"
         d="m 1046.5,333 c -6.5555,0.52444 -4.7041,13.03742 -4.5858,20.23744 0.3859,23.48309 -4.3739,64.01414 -4.9445,96.46104 -0.5183,29.47213 -6.7619,85.72444 -7.7026,109.17412 -8.5048,-15.91174 -13.1824,-21.85302 -17.7312,-27.00946 -2.8873,-3.27297 -6.4979,-6.39763 -9.871,-14.24232 4.0018,10.84285 5.474,21.57783 7.1997,30.36117 2.2892,11.65133 10.9479,69.26801 12.4479,85.26801 1.5,16 3.4375,34.375 3.4375,40.875 0,6.5 -1.25,13.625 -0.25,22.625 1,9 10,24 27.5625,23 16.0442,-0.91355 21.1281,-12.10616 24.1281,-21.10616 3,-9 5.7593,-54.21374 4.1127,-134.72174 -1.6465,-80.5 -4.7856,-135.92319 -5.8033,-152.4221 -1.5303,-24.8085 -9.5,-52.32322 -14.5,-61.82322 -5,-9.5 -7.5191,-17.15525 -13.5,-16.67678 z"
         id="path3871"
         inkscape:connector-curvature="0"
         sodipodi:nodetypes="ssscscssssssssss" />
      <path
         style="fill:#000000;fill-opacity:1;stroke:none"
         d="m 832.69194,531.41161 c -10.58578,34.69715 -12.30672,51.93765 -12.5,68.47703 -0.24699,21.1354 6.83723,69.44206 16.57323,87.19975 9.93874,18.12748 19.38412,43.80073 44.05805,34.07322 11.64982,-4.59285 19.66161,-22.55806 11.66161,-33.30806 -8,-10.75 -4.27692,-3.01967 -16.73483,-23.85355 -12.46967,-20.85355 -27.4545,-56.23223 -30.4545,-74.23223 -3,-18 -3.64645,-26.56066 -6.5455,-36.26777 -2.6237,-8.78514 -3.76517,-10.80285 -6.05806,-22.08839 z"
         id="path3873"
         inkscape:connector-curvature="0"
         sodipodi:nodetypes="csssssssc" />
      <path
         sodipodi:nodetypes="cssssscsscsssssssssc"
         inkscape:connector-curvature="0"
         id="path3902"
         d="m 882.15901,539.39017 c 5.21599,0.44194 5.34099,2.48483 10.46599,3.48483 5.125,1 14.10756,-3.54621 16.1276,-4.49372 6.22143,-2.91819 37.53305,-21.33521 58.03915,-31.76504 16.48965,-8.38698 97.80835,-60.25161 226.45095,-63.77349 41.9803,-1.1493 100.2211,9.73436 105.2768,17.67767 2.3854,3.74784 0.4357,15.86701 -1.6857,22.40775 -9.4963,24.79073 -28.1319,69.25901 -65.2229,124.99645 -36.0337,54.14862 -65.1284,92.40227 -85.8113,103.89276 -15.5209,8.62275 -87.1867,-49.25592 -105.7763,-123.17712 2.887,34.74516 44.3048,176.08782 102.0702,172.31476 23.1961,-1.5151 34.7636,-1.20459 70.4114,-51.5348 31.5538,-44.55 89.3558,-125.93914 111.9882,-224.98501 2.9405,-12.86855 1.5834,-32.94333 -4.6783,-38.80693 -15.1079,-14.14734 -44.6322,-22.06719 -70.1804,-24.39518 -37.8302,-3.44715 -70.1803,-5.48008 -118.9706,1.59099 -48.7904,7.07106 -96.881,24.46823 -139.65365,45.16645 -43.66381,21.12943 -75.74881,45.60838 -89.449,56.8337 -9.87934,8.09468 -9.44534,10.20781 -12.28598,12.1976 -1.54835,1.08457 -4.33282,2.43856 -7.11616,2.36833 z"
         style="fill:#000000;fill-opacity:1;stroke:none" />
      <path
         sodipodi:nodetypes="sssssssccsscssssssscsss"
         inkscape:connector-curvature="0"
         id="path3904"
         d="m 933.0274,468.60926 c -4.96281,7.52152 -3.28554,16.72056 -4.21231,25.75762 -0.88386,8.61866 2.50309,48.69199 3.60355,77.32831 0.90379,23.51833 -0.80546,36.56765 0.25521,40.98707 1.06066,4.41942 4.59619,17.14734 18.73832,17.32412 14.14214,0.17677 22.62742,-17.14734 27.40039,-24.39519 4.77297,-7.24784 35.54224,-57.49946 107.30344,-118.44038 64.3361,-54.63533 75.4394,-67.04256 97.9785,-84.49926 -11.4743,41.77798 -34.2103,73.04505 -34.8692,108.71767 1.591,25.45583 16.1213,29.40559 25.8977,38.00698 8.2537,7.2617 20.7713,9.54595 21.832,23.33452 1.0932,14.21021 -13.2582,50.82331 -24.0416,64.43512 22.2738,-17.85446 44.9013,-38.53733 48.1717,-69.47325 3.6491,-34.51805 -43.475,-37.5338 -43.1702,-53.72279 0.2611,-13.86754 1.4575,-36.17301 22.1755,-95.29305 1.7852,-5.09403 7.5178,-21.18642 10.4537,-26.57441 4.2373,-7.77636 12.2842,-18.90027 7.1492,-25.18778 -8.3779,-10.25823 -14.5578,2.56291 -22.3293,9.24048 -86.6579,74.4599 -121.3047,99.17697 -176.9535,151.32085 -24.90589,23.33731 -46.43157,43.03669 -52.7652,52.49748 1.29137,-7.16422 0.59283,-20.56923 -2.30698,-41.65344 -4.05407,-29.47672 -8.03705,-39.65864 -15.46168,-55.92209 -7.42462,-16.26346 -12.7577,-16.95847 -14.84924,-13.78858 z"
         style="fill:#000000;fill-opacity:1;stroke:none" />
    </g>
    <g
       id="g3925">
      <path
         sodipodi:nodetypes="sssssssss"
         inkscape:connector-curvature="0"
         id="path3913"
         d="m 1393.375,426.5625 c -3.3142,2.04263 0.1197,20.44724 0.5882,23.56251 6.1106,40.63054 18.6059,103.95036 27.6247,128.18139 10.9105,29.31339 29.4885,74.97398 59.7246,52.6311 11.451,-8.46167 7.2053,-24.85907 2.7027,-29.53845 -2.9417,-3.05719 -6.0558,-8.22141 -10.8107,-17.17938 -7.0572,-13.2954 -9.2068,-20.93622 -27.6867,-72.75476 -16.2782,-45.64473 -29.9502,-67.69994 -39.023,-77.88172 -3.4213,-3.8395 -9.0486,-9.52988 -13.1198,-7.02069 z"
         style="fill:#000000;fill-opacity:1;stroke:none" />
      <path
         sodipodi:nodetypes="cssssscssscscsssssssscsc"
         inkscape:connector-curvature="0"
         id="path3915"
         d="m 1544.625,396.5 c 7.25,0.375 9.875,2 11.5,2.875 2.0882,1.12443 6.5,6.125 13.125,7.25 9.666,1.64139 24.875,3.375 33,2.75 5.4838,-0.42183 20.75,-1.875 82.625,-21 48.9178,-15.12003 93.3676,-23.94822 132.6176,-23.44822 39.25,0.5 69.3302,11.62607 85.6993,23.28033 -2.4575,11.21231 -2.707,15.854 -2.6767,23.0585 0.034,8.01554 -11.2622,33.78502 -30.7465,102.59523 -11.1209,39.27404 -21.4781,61.09364 -28.4022,74.64263 -8.4345,16.50458 -30.4915,57.87153 -42.8665,68.62153 -13.375,-6.625 -21.5625,-12.5625 -39.0625,-27.8125 -17.5,-15.25 -18.0625,-18.125 -39.0625,-36.8125 10.0625,12.75 11.125,17.3125 17.875,31 8.3583,16.94884 13.375,35.0625 26.3125,55.3125 7.7332,12.10414 20.6384,28.77044 46.1875,24.3125 9.396,-1.63947 20.8339,-5.22738 40.0834,-39.54182 7.806,-13.91503 17.8528,-31.36967 35.4876,-70.25471 21.3298,-47.03265 50.7509,-160.94721 50.804,-171.95347 0.1258,-26.06635 -3.239,-35.27157 -5.375,-39.25 -8.1778,-15.23129 -43.6025,-36.8801 -99.0858,-41.10983 -86.6238,-6.60372 -176.4767,37.35983 -227.4767,48.85983 -13.125,2.75 -20.5785,1.14708 -33.9741,2.89017 -13.5963,1.76919 -16.0884,3.73483 -26.5884,3.73483 z"
         style="fill:#000000;fill-opacity:1;stroke:none" />
      <path
         sodipodi:nodetypes="scsccsssscss"
         inkscape:connector-curvature="0"
         id="path3917"
         d="m 1614.148,419.7305 c -8.5007,1.07171 -15.6998,11.61678 -17.1694,19.67483 -8.8943,13.71492 -32.6133,63.56536 -53.7377,113.24608 -11.9538,28.11324 -17.0877,35.422 -26.7472,63.26909 -3.1187,-5.12177 -4.9231,-14.45604 -6.1036,-23.9686 1.3829,11.96581 0.6376,20.0507 0.2626,26.9257 -0.375,6.875 -2.2803,8.81219 -0.6893,12.24112 4.4193,9.52467 13.8233,11.28113 24.206,-0.68458 C 1545.2488,617.6656 1562.25,591.75 1581.5,544 c 13.4527,-33.36974 30.3388,-63.59582 41.1636,-90.76404 1.9445,-4.06586 5.523,-8.11396 7.3943,-14.99569 2.2051,-8.1094 -6.2421,-19.72863 -15.9099,-18.50977 z"
         style="fill:#000000;fill-opacity:1;stroke:none" />
      <path
         sodipodi:nodetypes="csssssssscsssscc"
         inkscape:connector-curvature="0"
         id="path3919"
         d="M 1507.9268,521.12545 C 1507.649,510.32995 1506,501.5 1503.25,498.25 c -2.75,-3.25 -6.5403,-6.11612 -9.7348,-13.03033 -2.3657,-5.12018 3.279,-11.29289 7.5593,-13.04289 3.8305,-1.56608 8.5719,-3.32323 14.8094,-2.60226 4.9917,0.57698 15.3661,4.17548 30.4286,12.61298 15.6144,8.74664 38.0625,21.5625 77.125,47.5625 3.8712,2.57665 10.0312,8.65625 13.875,12.53125 2.3686,2.3879 7.1875,7.59375 9.875,12.09375 3.77,6.31263 5.75,9.34375 11.1875,15.5 -8.9834,-3.70311 -11.9414,-4.61428 -17.1289,-6.05178 -10.6443,-2.94961 -14.6768,-2.18754 -18.159,-2.97227 -9.8975,-2.23041 -22.0561,-8.63424 -31.403,-13.70971 -24.8063,-13.47011 -31.8132,-17.32363 -61.8015,-38.03899 -10.7946,-7.45668 -13.9458,-10.09532 -20.4458,-13.28282 -2.4071,7.99946 -1.702,15.9373 -1.51,25.30602 z"
         style="fill:#000000;fill-opacity:1;stroke:none" />
      <path
         sodipodi:nodetypes="csscsscsssssssc"
         inkscape:connector-curvature="0"
         id="path3921"
         d="m 1786.9375,403.6875 c -15.125,1.625 -20.4375,16.0625 -24.1875,22.1875 -3.75,6.125 -32.5188,60.34835 -49.375,83.875 -14.9712,20.8957 -26.4375,36.625 -34.875,43.5 -5.0625,-6.75 -11.4958,-34.08261 -12.2029,-50.69962 -0.7071,-16.61701 -0.4901,-34.92101 0.2652,-40.83541 1.4719,-11.52579 2.3865,-15.73314 5.7452,-20.94805 -14.1421,9.36916 -17.0539,30.75788 -16.617,66.37965 0.2469,20.1267 4.5291,58.72682 8.8389,66.46804 2.2426,4.02818 7.3425,8.42094 15.8278,8.42094 8.4852,0 12.5415,-3.23601 24.4166,-17.59556 22.5582,-27.27768 30.4851,-36.96963 49.226,-69.91779 22.9216,-40.29815 28.5334,-66.22749 31.0251,-71.07647 2.6975,-5.24945 1.4709,-9.35159 0.6001,-12.50823 -0.5,-1.8125 0.187,-4.625 1.3125,-7.25 z"
         style="fill:#000000;fill-opacity:1;stroke:none" />
      <path
         sodipodi:nodetypes="ssssscssss"
         inkscape:connector-curvature="0"
         id="path3923"
         d="m 1671.625,440.375 c 6.5167,-1.5498 22.0179,6.49602 26.8211,10.43198 9,7.375 29.4001,25.02881 37.6501,34.27881 8.25,9.25 35.8354,44.30092 44.887,57.11701 8.6331,12.22368 11.5733,21.51267 12.785,22.99392 4.6931,5.73699 4.9447,14.56695 7.8035,21.87868 -2.9914,-6.23667 -8.5649,-7.47806 -15.3696,-9.95168 -8.3336,-3.02939 -31.6588,-28.41446 -34.7826,-30.71862 -7.7355,-5.70583 -18.0971,-17.6242 -40.1413,-40.46944 -11.4565,-11.87281 -51.1785,-62.81971 -39.6532,-65.56066 z"
         style="fill:#000000;fill-opacity:1;stroke:none" />
    </g>
  </g>
</svg>
